[img]http://i.imgur.com/dgz1GPd.jpg[/img]

[code]

The.Last.Stand.2013.HD.CAM.XViD-26k
 
http://www.imdb.com/title/tt1549920/

Plot:

The leader of a drug cartel busts out of a courthouse and speeds to the Mexican border, where the only 
thing in his path is a sheriff and his inexperienced staff.

Sources - VIDEO: A Friend ..... thanks .... :P
          AUDIO: A Friend ..... thanks .... :P
        
Format                                   : AVI
Format/Info                              : Audio Video Interleave
File size                                : 1.37 GiB
Duration                                 : 1h 39mn
Overall bit rate                         : 1 973 Kbps
Writing library                          : VirtualDub build 32839/release

Video
ID                                       : 0
Format                                   : MPEG-4 Visual
Format profile                           : Advanced Simple@L5
Format settings, BVOP                    : 2
Format settings, QPel                    : Yes
Format settings, GMC                     : No warppoints
Format settings, Matrix                  : Default (H.263)
Muxing mode                              : Packed bitstream
Codec ID                                 : XVID
Codec ID/Hint                            : XviD
Duration                                 : 1h 39mn
Bit rate                                 : 1 835 Kbps
Width                                    : 720 pixels
Height                                   : 288 pixels
Display aspect ratio                     : 2.500
Frame rate                               : 25.000 fps
Color space                              : YUV
Chroma subsampling                       : 4:2:0
Bit depth                                : 8 bits
Scan type                                : Progressive
Compression mode                         : Lossy
Bits/(Pixel*Frame)                       : 0.354
Stream size                              : 1.27 GiB (93%)
Writing library                          : XviD 64

Audio
ID                                       : 1
Format                                   : MPEG Audio
Format version                           : Version 1
Format profile                           : Layer 3
Codec ID                                 : 55
Codec ID/Hint                            : MP3
Duration                                 : 1h 39mn
Bit rate mode                            : Constant
Bit rate                                 : 128 Kbps
Channel(s)                               : 2 channels
Sampling rate                            : 44.1 KHz
Compression mode                         : Lossy
Stream size                              : 91.0 MiB (6%)
Alignment                                : Split accross interleaves
Interleave, duration                     : 40 ms (1.00 video frame)
Writing library                          : LAME3.98.4

Notes -

Did not need to do much so wont bore ya.. just enjoy ....

[/code]

Screens:

[img]http://i.imgur.com/5i39t91.png[/img]
[img]http://i.imgur.com/FujcQb3.png[/img]
[img]http://i.imgur.com/tUYTE1i.png[/img]
[img]http://i.imgur.com/vAZ1lzO.jpg[/img]
[img]http://imageshack.us/a/img838/7530/19004959.png[/img]
[img]http://imageshack.us/a/img708/3604/49460645.png[/img]
[img]http://imageshack.us/a/img46/9862/52751535.png[/img]
[img]http://imageshack.us/a/img811/8687/77117887.png[/img]
[img]http://imageshack.us/a/img19/5136/38817615.png[/img]
[img]http://imageshack.us/a/img69/3204/10117750.png[/img]

Greetz:
SILENT-HD|CM8|RX|VISION|HDSCENE|xTriLL|ADTRG|CRYS|REMIXHD|HS|Tommiecook
BIDA|RX|REFILL|INSPiRAL|AXED|HOPE|Anonymous|GooN|NOIR|Blackjesus|Gabroo Punjab Deh
|UNiQUE|RESiSTANCE|TRiNiTY|LEGION

To all the people who have helped me, you know who you are

Anything to offer email us @: 26k@hushmail.me